<?xml version="1.0" encoding="UTF-8"?>
<!DOCTYPE svg  PUBLIC '-//W3C//DTD SVG 1.0//EN'  'http://www.w3.org/TR/2001/REC-SVG-20010904/DTD/svg10.dtd'>
<svg width="797.12mm" height="586.58mm" clip-rule="evenodd" fill-rule="evenodd" image-rendering="optimizeQuality" shape-rendering="geometricPrecision" text-rendering="geometricPrecision" version="1.0" viewBox="0 0 27021 19884" xml:space="preserve" xmlns="http://www.w3.org/2000/svg">
 <defs>
  <style type="text/css">
   <![CDATA[
    .fil1 {fill:none}
    .fil0 {fill:black}
   ]]>
  </style>
 </defs>
    <path class="fil0" d="m4064 11794c39 710-40 1369-73 2069-45 953 163 1092 1105 1147 833 49 1806 7 2652-2 414-5 1310 30 1661-105 434-166 369-634 338-1019-29-365-68-722-85-1090-18-396-60-596-416-836-1028-691-3661-491-4885-353-186 21-82 11-256 25 140-32 103-25 252-50 1227-201 3902-405 4951 284 474 312 453 584 487 1081 28 407 127 1041 104 1423-44 741-645 767-1250 768-753 2-1507 3-2259 2-514 0-1875 50-2262-291-325-287-211-983-175-1384 50-568 75-1104 111-1669z"/>
   <path class="fil1" d="m4064 11794c0 3688-1283 3275 4585 3275 1616 0 1131-651 1067-2442-58-1636-4448-1185-5611-997"/>
    <path class="fil0" d="m4064 11835c98 40 1123 779 1312 904 502 335 791 510 1406 608 688 110 1109-302 1576-737 219-203 287-247 449-493 113-171 178-290 374-364-106 76-131 97-208 206-164 233-148 299-367 526-306 317-748 778-1163 938-479 185-1153 6-1583-240-286-164-1633-1136-1796-1348z"/>
   <path class="fil1" d="m4064 11835c2 0 1584 1239 2047 1402 1169 412 1468 220 2568-881 123-122 276-525 502-603"/>
    <path class="fil0" d="m4023 11753c161-63 814 539 953 650 1160 929 2338 1437 3401 24 167-221 212-240 447-403 125-86 253-182 398-230-124 91-244 179-366 275-224 176-255 181-411 407-1066 1538-2346 1013-3525-6-167-145-704-684-897-717z"/>
   <path class="fil1" d="m4023 11753c416-103 2682 3264 4472 577 50-75 627-502 727-536"/>
    <path class="fil0" d="m4064 11589c-74 403-102 1010-128 1424-15 228-99 1613-28 1868 208-125 966-55 1145-45 1149 67 2332 222 3473 253 217 7 456 19 667-35 226-58 186-34 398-55 259-26 245-294 245-504-2-430-97-999-146-1442-51-464-59-1114-520-1356-492-259-2010-285-2598-257-722 33-1484 77-2202 149-108 11-201 21-306 41 284-117 1891-225 2293-252 661-45 1326-40 1986 24 1060 102 1297 310 1434 1343 56 421 118 876 164 1297 34 308 137 991-263 1087-140 34-244 9-434 57-379 94-1086 22-1500-11-428-34-3640-383-3801-218 0-1 0 0 1-2-16 40-54 45-84 20-174-145 74-3054 204-3386z"/>
   <path class="fil1" d="m4064 11589c-78 126-343 3371-163 3357 66-323 4754 392 5317 174 426-165 852 319 621-1361-294-2138 66-2292-2797-2374-309-9-2828 162-2978 245"/>
    <path class="fil0" d="m10982 15601c2 33 3 69 5 107 45-188 85-346 110-445 13-49 18-39 66-42 46 58 10 116-9 206l-17 87c70-142 151-237 219-140 97 139-109 873-308 1462-42 203-86 401-121 563-3 10-8 48-17 94 105 2 212 5 299 9 244-52 491-72 642-55 69 8 136 91-83 117h-4c0 3-1 5-2 8-8 22-117 36-263 43l1 6c-15 18-125 11-211 1-65 2-130 2-193 3-91 25-179 55-258 91-7 8-14 14-22 18-12 4-22 7-31 7-93 48-169 103-218 168-15 30-29 56-42 77-25 45-48 27-84 12-3-26-4-48-2-66l-3 3c1-1 2-3 3-5 5-34 19-60 46-92 27-57 61-131 98-216 2-15 5-32 8-52-54-6-102-19-97-46 2-14 45-22 110-27 15-77 35-174 58-281 66-406 204-1009 313-1459 3-55 5-107 7-156zm-294 2054c-2 12-4 20-5 25 13-7 28-15 42-22v-23c-12 11-25 17-37 20zm427-1753c26 1 42 20 51 45l9 6c39-159 66-299 76-402-44 86-90 210-136 351z"/>
   <path class="fil1" d="m10982 15601c51 1684-865 3676 156-328 74-288-801 3793-402 1880 550-2633 975-2114 0 327-312 781 727-3138 246-685-407 2073-73-76 116-799 365-81-746 2259-607 1938 262-610 2602-437 528-372-1518 47 2392 16-201-38-1174-24 1546 142 365 79l-119 3"/>
    <path class="fil0" d="m12101 17118c-107 23-82-236-83-276-8-438-5-955 13-1393 2-49 9-155 94-112 37 18 47 174 49 319 6 3 13 8 20 14 58 49 23 943 17 1098-2 40 2 173-13 271 0 50 0 99 1 147 0 14 37 345-62 269-16-12-27-162-36-336v-1z"/>
   <path class="fil1" d="m12169 15805c-135 1323 26 2043 0 168-18-1249-82 2526-82 423 0-3462 82 3391 82 119v-219"/>
    <path class="fil0" d="m11802 14697c-52-56-80-120-15-175 40-33 112-45 188-34 34-11 70-6 109 20 9 5 18 13 26 21 183 89 300 314-67 667-249 239-362 22-311-265 4-21 11-50 20-84-28-25-16-67 35-107 3-14 8-28 15-43zm24-45c19-39 41-75 66-104-97-1-98 46-66 104zm267 334l-12 3c-9 17-21 30-35 39 4-12 8-23 11-35-28 2-61-2-98-13-36-11-67-26-92-44-26 102-34 200-8 238h-1c57 9 225-176 227-179 3-3 5-6 8-9zm-36-175c-26 15-59 28-102 39 3 1 5 2 7 3 57 27 89 21 104-1-2-14-5-28-9-41zm-50-76c-20-11-43-11-67-4-6 11-12 23-17 36 33-9 64-20 84-32z"/>
   <path class="fil1" d="m11964 14823c-690-508 825-375 41 331-492 443-44-1113 126-416 96 390-562 101-167-127 436 180-545 332-41 96 183-85 193 261 123 321"/>
    <path class="fil0" d="m12496 15519c0-1-33-329 26-246 26 37 59 388 87 801v-77c2-116 0-913 26-952l43-33c98 36 87 26 88 127 6 759-10 1533-19 2294-2 107 8 100-2 125-3 7-7 17-13 32-42 17-21 17-62 0-3-6-5-17-7-32h-6l-1-61c-6 13-13 22-21 25-80 31-69-73-67-113 16-309-8-712-19-1026-8-249-13-700-42-982-5 59-11 118-11 118z"/>
   <path class="fil1" d="m12496 15519c0-1065 156 1782 120 1954 76-146 85-5368 85 85 0-586-41-1128-41-1712"/>
    <path class="fil0" d="m13724 15191c3-3 265-314 265-158 0 201-1121 1793-1277 1811-318 38 468-983 488-1009 73-92 529-664 609-642 21 6 31 19 33 38 53-85 88-152 97-189-54 24-215 149-215 149zm-611 1021l-3 3 45-79c53-87 144-215 240-352-153 198-310 416-430 609 46-56 96-117 148-181z"/>
   <path class="fil1" d="m13724 15191c818-792-688 1317-1020 1586 0-100 282-650 1010-1459 360-401-555 843-604 897"/>
    <path class="fil0" d="m12865 16747s-206-267-66-240c22 4 76 41 148 98 21-7 47-4 70 13 96 71 676 583 670 668 120 114 214 206 242 238-79-50-162-112-244-175 3 9 4 17 2 23-45 138-298-178-335-215-24-24-100-97-183-179-134-120-285-258-289-270l-5-29 30-29 3-9c-53-47-94-80-117-90 6 39 73 193 74 196zm-74-203v-2 2z"/>
   <path class="fil1" d="m12865 16747c-593-992 1879 1803 146-31-341-360 1576 1442-57-3-231-204 942 776 975 811"/>
    <path class="fil0" d="m14174 15560c19 15 35 49 49 96 23-227 47-408 64-481 7-32 40-66 71-57 22-17 53-6 60 32 7 33 8 139 7 280 3 148 5 371 1 619 28 15 58 29 89 43 43-12 93-19 151-20 107-2 748-15 794 36 132 147-446 125-446 125-45 2-90 4-136 6 4 11 2 24-7 38-19 32-241 36-440 33-5 14-9 29-12 44l-3 90c20 268 261 683 285 892 7 56 3 97-10 127 324 11 698 26 789 28 80 1 357-21 393 37 85 140-233 183-291 186-124 8-759-41-1100-120-93-3-186-5-280-7 9 0 9-1 20-3v-3c-10 5-20 7-32 5l-17-5 7-114c-7 3-17 7-30 12 23-48 44-136 63-251-6-4-13-10-19-18-55-65-50-470-24-905-15 0-28-1-38-1-34 0-413 38-339-88 23-39 220-52 387-58 4-57 8-114 13-170-271-250-295-597-86-981 81-150 1307-71 1311 46 3 67-294 82-563 82 227 32 396 60 629 15-326 108-702-4-1039-19v-6h-16l-6-16c3-6 10-11 22-15v-6c145-2 651-7 851-35-268-50-1034-89-1122-11-167 371-159 642 28 842 5-65 11-127 17-187-11-60-26-108-45-137zm220 1278c-18 230-43 435-81 573 88-18 250 23 257-9 22-95-88-323-176-564zm-193 618c3 0 7 0 10-1-4-1-6-1-10 1z"/>
   <path class="fil1" d="m14174 15560c246 214-119 3535 205-410 0 2892-372 2502-41 65 50-366 61 2067-137 2306-13-2 1117 44 1611 44-131 252-2066-177-1310-81 523 66-688-1351 164-1351 2601 0-2590 123-164 123 1120 0-1028 77-361-1232 90-177 2552 85 304 85 239 0 816 137 1039 41"/>
    <path class="fil0" d="m14297 14864c36 291 108 2561-194 2629-124 28-59-208-52-273 19-177 55-505 86-841-5-349-7-1034 68-1079 28-17 48-14 62 0 6-154 15-303 30-436z"/>
   <path class="fil1" d="m14297 14864c0 472 34 2286-208 2568 289-2216 85-3178 85-260 0-124-33-279 41-384"/>
    <path class="fil0" d="m14420 15069c31-24 65-44 104-62-127 3-370-3-305-106 51-81 1061-86 1223-82 146 3 117 115 37 124-162 20-310 29-458 41 4 1 9 2 13 3-90 15-174 19-259 20-113 14-230 32-355 62z"/>
   <path class="fil1" d="m14420 15069c257-174 2109-223 228-168-1016 30 279 86 386 86"/>
    <path class="fil0" d="m11882 12490c-348-1046-42-2549 831-3259 729-592 1302-151 1556 615 279 840 239 2034 153 2907-27 270-28 223-339 211-884-34-1771-103-2653-134-97-4-100 13-127-54 28-69 34-49 136-53 654-27 1404-135 2072-203-403-72-1002-64-1342-30l133-33c138-24 1499-78 1438 88-13 36-347 58-355 59-354 45-759 103-1156 149 329 14 659 31 984 45 189 7 843 47 1063 39 16-178 31-355 42-533 45-753 139-3028-838-3225-659-133-1240 775-1446 1286-297 740-297 1354-152 2125z"/>
   <path class="fil1" d="m11882 12490c-858-3019 3132-6196 2456 409-2 25-2715-123-2984-123 377 0 2324-249 2356-242-178-94-1280-118-1541-44"/>
    <path class="fil0" d="m11882 12531c-365-158-341-1286-298-1628 67-538 257-1137 762-1415 326-179 1051-578 1408-600 777-49 792 1073 799 1617 3 218-151 2528-374 2478l-5-2c74-39 102-273 113-334 108-617 190-1818 145-2435-30-410-88-1230-666-1184-330 26-1060 408-1365 569-369 194-550 570-656 956-120 439-236 1648 137 1978z"/>
   <path class="fil1" d="m11882 12531c-397-180-517-2485 491-2988 1276-636 2102-1271 2129 1071 3 238-136 2382-328 2367"/>
    <path class="fil0" d="m13479 8356c-5-49-11-116-20-189-44-88-97-167-154-232-24-24-50-48-77-72-246-214-362 74-414 368-31 269-18 580 97 707 183 201 538 127 684-115 21-202-27-422-113-610 1 54-1 103-3 143zm-89-523c-6-18-13-34-21-50-73-62-147-102-217-111-3 1-5 2-8 3 83 24 168 84 246 158zm-725 636c-41 197-35 389 43 531-36-164-51-350-43-531zm190 685c118 70 289 95 527 49 23-5 46-11 67-17 19-23 36-47 51-72-87 49-192 78-310 78-168 1-284-51-364-136 8 34 18 67 29 98zm752-41c175-122 218-332 183-555 10 160-38 310-131 423-13 45-31 89-52 132zm68-913c-65-138-151-264-243-359 4 15 8 31 12 46 95 102 177 220 231 313zm-759 1081c86 132 216 178 407 26-166 22-300 10-407-26zm-181-1331c-50 97-91 234-117 417 20-73 46-144 76-213 11-75 25-144 41-204zm-167 718v-32c1-503 101-774 240-884 453-873 1768 1198 689 1520-4 4-8 9-12 13-350 372-589 234-716-82-154-119-211-317-201-535z"/>
   <path class="fil1" d="m13479 8356c0-2140-1908 1209-89 893 1365-237-707-3154-652-614 22 994 1805 334 532-818-731-662-795 2433 182 1436 751-767-909-2789-874-406"/>
    <path class="fil0" d="m18411 9072c-45-11-90-21-136-30-438 39-822 215-997 624 601-423 1604-542 2323-336-39-48-83-93-132-135-58-19-118-36-182-53-315-80-663-127-983-103 35 10 71 21 107 33zm-738-74c-287 35-528 183-627 557 130-244 339-436 627-557zm-657 1072c6 49 14 99 23 150-1-65 1-130 7-193-10 14-20 28-30 43zm325 916c264 430 665 770 1133 812 131-43 261-100 386-164 693-497 1195-1497 838-2159-732-276-1894-145-2479 366-21 88-36 184-41 289-14 289 46 587 163 856zm1553 770c257-76 526-246 799-537-242 215-523 400-799 537zm-1717-2204c-61 96-109 204-141 325 13-14 27-28 41-42 23-99 56-194 100-283zm-187 669c-1 106 7 220 26 341 46 287 244 970 479 1167 122 103 271 151 433 159-437-279-752-805-854-1340-36-108-64-218-84-327zm1194 1651c47-8 94-18 141-30-279-64-532-226-743-445 164 212 369 381 602 475zm1026-443c144-95 269-191 364-275 472-419 739-879 669-1264-77-137-209-260-413-359-16-7-32-15-49-22 261 577-50 1379-571 1920zm844-1898c-105-109-252-206-448-285 34 36 64 74 91 114 132 45 253 102 357 171zm-1602 2413c303 42 638-40 981-302 311-238 674-644 825-1052-219 420-637 852-927 1043-241 157-477 231-702 238-14 6-28 11-42 16-45 21-90 41-135 57zm-1566-1580c-71 289-4 637 264 1043-49-113-92-237-135-371-75-236-118-462-129-672zm1632-1515c-174-19-367-26-582-18-478 18-667 179-917 568 216-410 446-577 915-602 477-25 852 22 1139 121 196 44 395 109 578 196 368 155 665 397 725 752 2 8 4 15 6 23 152 316 86 749-338 1301-667 868-1335 1029-1872 822-133 17-266 11-396-23-138-26-249-81-341-159-155-109-301-268-431-488-304-515-300-938-111-1268 13-123 38-240 77-348 57-529 377-741 782-759 191-69 413-110 667-118 32-1 65-1 99 0z"/>
   <path class="fil1" d="m18411 9072c-3067-956-584 5318 1780 1555 1236-1967-4708-2944-2919 901 760 1634 5377-2034 1548-2545-3310-442-1191 4964 1072 2299 2384-2808-4603-2576-2770 164 1443 2157 4921-2896 716-2627-388 25-645 249-819 580"/>
    <path class="fil0" d="m18411 11937c18 304 36 622 70 942 48 108 85 198 100 229 96 211 205 464 319 714-16-176-41-370-68-559-3 3-5 6-8 10l-73-57c14-23 35-55 60-92-7-45-14-88-21-131-28 18-58 24-79-11-15-24 9-76 52-142-44-242-89-437-122-518l-1-4c-7 48-9 91-82 85v-92l-42 26c10-50 35-184 106-192 20-24 46-57 80-108 23-34 289-471 363-293 31 77-102 387-193 586 140-90 344-198 337-36-4 70-67 185-144 303 53-37 99-54 126-34 17 12 21 35 16 65 140-149 264-234 288-103 41 223-381 1002-461 1247 142-117 546-571 543-356-3 124-165 369-236 522 99-73 302-215 201 62 112-57 213 58 198 648 0 5-20 303 2 329 37-12 155-319 142-11-33-319-80 94-156 26-40-35-3-644-57-839-39-141-98-141-156-86-43 96-213 472-239 352-8-38 75-224 173-339 36-81 64-154 64-186-44 17-81 52-117 78-345 253 79-370 111-535-47 31-129 112-152 134-31 30-213 244-324 290 8 96 13 188 15 271 79 161 159 313 237 443 112 185 510 567 707 633 37 12 68 12 94 3 24-22 48-47 70-76 171-392-348-2053-394-2206-113-373-266-793-361-1158-39-153 58-153 99-85 481 782 1036 1998 928 2920-19 166-64 317-130 442-20 160-77 268-184 291-28 7-58 7-91 1-183 97-416 73-674-134-189-152-344-367-470-619-115-87-222-417-230-438-164-447-325-910-473-1362-11-32-230-554-20-494 58 16 176 253 275 470-25-303-29-587-18-826zm139 1440c12 72 26 144 41 215 144 406 281 773 320 838l1 2c11-56 15-141 12-245-131-265-259-554-374-810zm404 1227c40 72 84 143 131 212 179 261 521 577 827 492-281-119-638-496-741-665-43-71-87-147-130-229-7 66-18 114-34 140-17 27-35 42-53 50zm1350 237c217-714-231-1854-519-2428-48-96-126-247-204-389 60 183 132 387 165 489 84 265 537 1588 558 2328zm-1821-1611c-10-21-19-43-29-64-10-22-23-50-37-82 26 78 53 158 81 239l-15-93zm1259 1747zm-732-1341c130-326 425-934 404-1082-86 46-273 287-322 351-46 59-99 137-150 210 27 172 50 350 68 521zm-93-672c53-80 107-164 145-233-53 49-115 111-159 156 5 25 9 51 14 77zm-52-268c92-126 196-267 228-371-80 32-189 132-274 176 16 59 31 125 46 195zm-108-398c48-112 116-250 159-364-66 87-137 197-193 286 11 21 23 47 34 78z"/>
   <path class="fil1" d="m18411 11937c0 5055 3662 4094 1043-224-225-372 1999 5343-150 3008-332-362-2055-4722-594-594 621 1752 18-2753-135-1780-7-2 860-1388 177 109-56 124 910-754 33 450-230 315 916-1016 56 259-360 535 1377-2083 197 498-324 707 1009-1100 287 239-208 387 540-550 40 409-278 534 425-1272 356 491-20 514 163-250 163 164"/>
    <path class="fil0" d="m18247 12019s-43-334 34-246c58 67 137 913 215 1425 12-267 16-583 32-718-1-8-2-16-2-24h6c2-15 5-27 8-34l35-15 34 15c3 6 6 18 10 34h5c0 8 0 17 1 28 15 79 36 208 53 269 71 257 128 381 142 658l-43-131c-41-128-95-264-142-399 4 324-1 718-60 771-167 153-194-389-197-419-9-80-90-927-122-1279-5 33-8 60-9 65z"/>
   <path class="fil1" d="m18247 12019c0-1348 328 3765 328 437 0 230 195 597 245 955"/>
    <path class="fil0" d="m7441 6289c4-15 7-30 10-44-65-11-135-18-212-21-55-3-109-5-160-5-149 322-162 817-129 1051 24 177 65 316 117 419 24 6 48 11 73 16 75 14 155 24 236 30 140-68 276-160 395-257 377-469 483-1102-315-1233-6 18-11 33-15 44zm23-102c18-89 31-177 26-244-28-8-57-14-86-19-131 21-229 114-299 244 6 0 13-1 19-1 127-1 240 5 340 20zm-558 41c-211 267-379 612-366 905 53 138 137 264 246 384-99-86-179-189-238-303 30 177 136 329 353 421-137-374-147-990 20-1408-5 0-10 1-15 1zm733 1510c61-3 120-9 177-19 71-63 143-140 214-230 73-91 129-186 171-283-138 209-340 396-562 532zm419-85c252-103 413-306 341-658-4 19-7 38-12 57-42 183-167 409-329 601zm189-1050c-171-303-447-561-730-652-1 75-22 166-43 237 734 108 764 618 516 1082 34-38 63-76 87-111 138-199 190-387 170-556zm-1175-635c-94 44-182 118-260 227 25-5 52-10 79-14 43-54 87-104 133-150 15-22 31-43 48-63zm-300 288c-55 89-103 198-144 328-3 13-8 26-12 40 63-131 143-265 233-387-27 5-53 11-77 19zm-269 1041c0 46 2 91 6 134 6 41 14 82 22 120 29 106 82 193 169 242 91 53 198 68 312 56-20-28-39-58-57-92-6-11-12-23-18-36-208-78-375-212-434-424zm653 523c26-7 52-16 78-25-39-6-78-13-116-21 13 17 25 32 38 46zm227 107c99 3 208-38 322-118-54 4-110 6-167 7-51 41-102 78-155 111zm17-2142c-312-40-567 126-723 413 168-282 387-393 615-388 34-12 70-21 108-25zm-626 2166c88 49 201 58 343 13-5-4-9-8-14-12-50 9-100 14-148 15-68 2-128-4-181-16zm430 70c-280 117-552 78-697-237-108-148-127-366-109-587-83-2272 1950-1634 2016-453 183 443 114 903-469 1031-230 223-508 361-741 246z"/>
   <path class="fil1" d="m7441 6289c552-1655-2529 1599 239 1480 2185-94-896-3853-1228-552-182 1807 3243-399 1235-1317-1198-547-1099 3316 334 1698 1325-1495-1735-3187-1569-287 125 2204 3341-1353 416-1104-554 47-512 947-82 1310"/>
    <path class="fil0" d="m7523 8008c-6-13-11-27-17-43-523 9-1012-220-1050-852-13-203 81-1225 382-1187 305 39 596 1425 669 1944 376-1 783-124 1041-276l121-77c-116 115-91 104-238 192-249 150-586 248-912 256 2 16 3 30 4 43zm-50-139c-72-231-155-602-205-778-16-57-337-1232-483-1012-142 215-230 972-169 1224 100 408 458 559 857 566z"/>
   <path class="fil1" d="m7523 8008c-36-89-686-3615-989-1146-176 1425 1612 1150 2135 655"/>
    <path class="fil0" d="m8342 6207c-99 416-232 1063 107 1412 53-30 206 87 287 119 92 35 175 51 253 52 248-58 465-277 554-527 13-39 25-78 34-119-11-756-604-1819-1185-2365-804-379-1746 179-2171 1061-453 942-477 2615 564 3200 706 398 1806 217 2326-403 25-30 142-217 197-83 42 104-245 556-328 654-713 848-1840 412-2533-254-56-50-107-104-155-161-25-28-50-57-74-86-1015-1240-806-2734 350-3791 216-197 692-595 976-624 312-33 625 146 906 416 193 97 377 244 544 451 396 490 798 1335 649 1985-3 10-5 20-7 30-3 503-244 901-1006 781-182-28-145-17-195-245-4-18-5-32-6-44-348-348-233-1041-87-1459zm145 1448c18 16 36 30 56 44 95 67 194 99 291 105-168-38-289-131-347-149zm1120-812c-7-582-354-1237-678-1631-74-91-152-170-233-237 347 420 621 938 747 1270 71 186 131 393 164 598zm-335 879c78-38 153-91 230-151 14-32 27-67 38-105 8-30 15-61 20-93-69 139-169 262-288 349zm221-131c-122 111-238 173-344 204-163 77-351 89-541-3-49-24-92-51-130-82 15 61 46 148 58 182 374 63 782 65 957-301zm-1306-2982c-38-28-76-53-114-75-328-192-533-212-846-2-786 524-1468 1276-1537 2264-25 354 41 721 178 1066-142-703-19-1505 257-2069 412-843 1275-1391 2062-1184zm-1028 4714c169 85 347 148 530 184 604 117 1015-114 1291-551-488 380-1207 520-1821 367z"/>
   <path class="fil1" d="m8342 6207c-818 2622 2623 1870 715-894-992-1437-2967-518-3164 1528-292 3027 2589 2850 3349 1740-1057 3052-6228-1439-1944-4154 1267-803 3739 4006 1221 3485-267-773 265 391 1051-395"/>
    <path class="fil0" d="m17429 5552h-16c-7 10-14 21-22 31 16 4 31 7 46 10 95-93 173-200 171-266-4-88-281-87-406-82l-1 1c-95 107-88 173-33 217 59-87 146-160 245-95 67 44 42 119 2 181l14 3zm-38-1c-56-2-104-7-143-16 29 12 55 22 75 29 18 6 36 11 54 15l1-3c5-9 9-17 13-25zm-282-87c-47-57-27-135 32-215-17 1-32 3-46 5-36 40-66 86-89 137 27 24 63 50 103 73zm422-513c210-95 419-104 440 101 7 76-35 211-107 360-3 54-12 102-25 132-31 70-78 117-136 146-229 336-554 610-771 334-126-160-142-421-58-646-47-90-23-172 122-212 119-145 300-239 535-215zm127 24c35 9 70 20 107 34 46 18 77 107 91 209 90-238-31-285-198-243zm-115 751c-41 1-83-3-126-11-220 161-466 211-319-126-48-29-91-61-128-94-26 102-27 213-2 320 98 410 413 113 575-89zm-220-34c-62-19-122-45-179-76-90 216 36 184 179 76zm-7-548c157 7 327 37 367 121 46 95-26 225-135 337 46-2 83-14 111-33 23-33 44-65 63-96 22-84 5-204-35-342-61-18-93-28-166-35-50-5-97-3-141 3-22 15-44 29-64 45zm78 400c99-218-122-169-175-76-4 7-7 13-11 20 51 24 119 41 186 56z"/>
   <path class="fil1" d="m17429 5552c-1174-81 1325-1449 203 143-892 1264-1122-1047 110-620 464 1341-1896-71-225 142 556 71-819 1125-320 239 82-145 391-121 150 178"/>
    <path class="fil0" d="m18212 4288c34 4 65 9 93 13 13 1 487 52 366 167-87 82-1107-53-1272-74-209-26-125-17-360 44-97 25-532 167-594 77-68-97 145-186 271-232-150-9-255-19-264-27-113-118 367-112 367-112 80-6 192-14 318-19 161-47 271-37 584-9 63 6 475 21 501 118 6 23 2 40-10 54zm-230 49c-70-1-134-8-157-8-10 0-26-1-46-1 114 14 239 30 358 43-5-6-10-11-16-17-44-6-91-12-139-17zm-912-36h-10c-9 3-17 6-26 10 13-4 25-7 36-10zm1080 57c3 7 6 11 7 15 70 8 136 14 196 19-23-4-44-8-60-11-44-7-92-15-143-23z"/>
   <path class="fil1" d="m16856 4488c407-555 3539 259 409-171-15-2-1661 450-82-136 217-80 2193 172-171 61-455-21-992 8 171-89 245-20 896 3 982 253"/>
    <path class="fil0" d="m15902 3700c634-1004 2148-265 3018 1 94 29 128 21 103 144-68 341-648 66-848-4-388-137-756-245-1112-271-55-1-114-1-173-1-270 57-533 162-779 279-32 15-114 61-203 107-12 14-23 28-35 41 8-11 15-23 22-34-118 60-247 119-288 103-120-47 5-149 44-182 82-70 166-131 251-183zm1049-266c302-49 608-37 908 81 50 20 114 46 183 75 308 53 647 133 679 226 16 45-10 64-61 66 3 1 7 2 11 3 152 37 226 47 249-76-667-211-1334-562-2048-552-427 6-683 133-905 405 311-174 641-239 984-228z"/>
   <path class="fil1" d="m15791 3915c607-1343 2445-352 3186-143 0 759-1896-1114-3349 224 21 73 1248-827 2210-430 1737 717 541-234-1474 14-197 24-385 262-491 416"/>
    <path class="fil0" d="m15519 2994c5-3 9-7 13-10-142 80-275 163-396 246 12-3 24-6 37-9 114-74 233-154 346-227zm1919-554c149-3 298 1 445 11 395-35 746-56 939-57 125 0 153 90-25 112-89 11-178 21-268 30 148 29 292 64 427 103 14 4 561 153 394 283-150 118-1187-160-1759-315-116 8-230 17-344 28-611 56-1153 328-1717 511-355 241-805 539-915 485-149-73 106-264 148-298 582-474 1775-1124 2540-930 36 10 82 22 135 37zm-2346 821c-42 29-82 58-120 86 46-27 94-57 143-89-8 1-15 2-23 3zm1328-632c216-37 476-73 746-104-40 1-78 4-115 7-230 18-437 49-631 97zm1728-61c-67 5-134 9-201 14 478 131 1054 278 1286 267-256-140-668-231-1085-281zm-2489 491c253-96 508-205 702-274 39-14 76-27 112-39-241 43-429 86-517 125-50 22-160 95-297 188z"/>
   <path class="fil1" d="m15218 3260c1975-1976 6860 595 2068-798-1324-385-4332 2366-1413 381 484-328 5516-574 1371-245-753 59-1922 694-2271 662"/>
    <path class="fil0" d="m19518 19466c-23-2-44-4-64-8 6 15 12 29 18 42 15-11 31-22 46-34zm-183-44c-5-2-9-5-13-7 6 8 12 15 18 23-2-5-4-11-5-16zm-128-185c-1-12-1-23 0-35-4 5-8 10-11 15 3 7 7 13 11 20zm30-150c7-15 14-30 22-45-8-129 6-249 59-326-84 65-159 141-218 220 8 67 31 140 63 214 20-21 44-42 74-63zm124-187c45-48 95-91 149-125-19-15-39-28-57-38-3-3-7-4-10-6-52 19-75 85-82 169zm309-194c56-13 112-14 164 2-49-49-128-85-245-98-35-4-68-6-98-7h-1c26 14 54 31 82 51 32 13 65 30 98 52zm333 152c21 38 38 84 53 137 86-438-117-540-368-473 231 46 318 177 315 336zm-547 820c-8-7-16-13-23-20-8 4-16 8-23 12 18 7 36 13 54 19-3-4-5-7-8-11zm-110-106c-12-12-23-25-35-38-145-76-240-184-202-298-26-52-48-105-66-156-19 117-21 237-13 318 50 81 133 149 229 203 28-5 57-15 87-29zm-331-796c32-142 146-246 381-267 467-251 1017-174 714 732 37 98 46 189 8 255-7 14-16 27-27 38 10 151-42 277-207 330-162 53-447-4-677-134-99 6-185-33-243-134-18-31-32-69-42-113-39-58-66-122-73-189-17-140 31-282 118-410 14-38 30-74 48-108zm971 199c-2 10-5 20-8 30 9 13 17 25 26 38-5-25-11-47-18-68zm-119 263c-75 116-173 226-278 313 43 7 87 11 131 13 46 1 87 0 124-4 30-48 59-105 86-168-15-50-37-102-63-154zm98-99c12 23 23 46 34 70 1-4 2-7 3-10-11-20-24-40-37-60zm-36 486c-25 37-52 71-81 99 21-6 38-15 51-26 23-21 39-47 48-78-6 2-12 4-18 5zm-605-238c-24-77-43-162-55-245-7 6-14 11-20 17-33 109 2 179 75 228zm405-639c57 43 113 96 165 154 3-32 2-63-5-92-46-43-101-62-160-62zm48 896c-77 1-158-9-237-27 81 107 162 100 237 27zm-415-628c31-15 65-30 103-44 28-11 53-20 77-26 13-35 24-55 33-52 13 5 37 19 63 34 9-1 17-1 24-1-40-48-81-91-120-125-67 37-130 92-182 156 0 19 1 38 2 58zm209-78c14-3 26-5 38-7-8-4-18-9-32-15l-6 22zm208 148c-10 69-46 150-91 217 47-54 88-111 122-168-10-17-20-33-31-49zm-224 350c-42 18-76 3-88-64-10-56 21-237 55-360-12 4-24 8-36 13-45 19-84 37-118 55 16 149 55 296 67 330 4 11 8 21 13 32 24 7 49 14 75 20 11-9 21-17 32-26zm0-435c-30 114-62 256-54 348 22 228 484-476 54-348z"/>
   <path class="fil1" d="m19557 19469c-1004-63 596-1634 498-21-71 1176-1777-894-580-894 1374 0-684 2054-498 587 209-1655 2014 1265 334 559-1395-587 1381-2255 723-416-579 1621-1225-1561-142-306 950 1100-1652 512-417 21 762-304-293 1157 96-96l150 75"/>
    <path class="fil0" d="m20048 19469c33-158 77-329 126-505-4-3-9-8-14-13-97-104 347-1280 518-1703 24-76 48-153 72-228l1-4c1-3 1-2 3-8l27 11c121-246 402-742 610-417 340 529-244 1246-169 1805 50 375 561 213 791 161-121 50-130 60-253 90-709 178-659-343-530-864 94-379 270-730 91-1099-164-341-493 495-577 718-131 458-271 936-413 1369-9 27-43 161-99 191-59 176-120 346-184 496z"/>
   <path class="fil1" d="m20048 19469c313-1003 1329-4324 307-983-579 1891 732-3328 1092-1562 102 503-958 2172 566 1644"/>
    <path class="fil0" d="m338 8623c-38-83-66-170-71-251-102 113-101 278-42 436 34-61 72-124 113-185zm24-479c39-29 91-51 158-64 94-18 198-13 301 11 4 0 8 0 12 1 22 2 43 4 62 8 126-77 252-95 335 40 34 57 56 149 63 260 74 117 93 257 19 409 33 69 17 158-77 265-29 32-62 64-97 94-63 111-146 197-251 232-82 78-187 88-310-23-248 98-364 55-395-60-45-9-78-40-93-101-12-51 13-146 61-257-168-311-129-676 212-815zm786 99c6 5 12 10 18 14-19-70-54-115-116-108 46 25 78 57 98 94zm-268 980c-21 13-44 26-67 39 16-2 36-9 57-20 4-6 7-12 10-19zm412-614c-2 23-4 47-7 70 5-23 7-47 7-70zm-797 713c-31-20-61-41-90-63-45 24-90 43-131 53 36 49 120 43 221 10zm-194-157c-10-10-19-20-28-30-4 14-7 28-9 41 12-3 24-7 37-11zm872-825c1 29-2 61-9 93 6-5 12-9 19-13 0-25-1-49-3-72-3-3-5-6-7-8zm-58 226c-10 22-22 44-35 66 1 8 1 17 2 25 28 8 55 17 80 27 8-58 15-120 18-182-20 16-42 38-65 64zm-154 236c-9 11-19 23-28 34-79 138-142 280-158 355 53-29 103-60 146-87 24-91 37-198 40-302zm-209 213c-42 35-94 77-149 118 12 44 31 85 57 119 10-5 20-10 31-15-1-51 17-124 61-222zm-173 135c-12 9-24 17-37 26 15 22 29 42 42 59 13 7 26 14 40 19-19-32-34-67-45-104zm-231-542c121-175 264-332 385-384-105 1-209 19-254 30-76 20-135 50-180 88-5 80 17 174 49 266zm592-356c38 34 69 83 91 143 11-73-29-118-91-143zm144 496c0 86-9 175-24 259 8-7 17-14 25-22 15-39 32-83 48-130 5-22 10-49 15-79-19-11-40-20-64-28zm-724 294c-10-40-13-78-9-112-10 21-19 42-28 62 12 17 24 34 37 50zm76-275c107-99 296-142 473-134 15-21 29-40 41-60-10-75-28-140-54-183-39-68-95-70-159-33-109 115-216 263-301 410zm128 231c10-87 58-153 158-147 42-43 82-87 118-131-222 13-443 122-360 343 28-20 56-42 84-65zm133-122c-50 11-81 46-96 90 32-28 65-59 96-90z"/>
   <path class="fil1" d="m401 8745c-739-1322 2199-374 245 559-1301 621 756-2399 580-662-184 1826-2032-450-519-485 1405-31-1465 2170-245 410 785-1134 674 1352 117 737-797-880 1483-768 402-82-828 525 716-1766 143-253-393 1037-884-375-232-61"/>
    <path class="fil0" d="m1138 8908c-154-326-326-877-451-1238-226-655-491-1374-677-2035-14-51-29-153 73-123 12 3 27 24 44 56v-3c0 2 1 4 2 6 78 152 190 550 217 633 22 69 502 1641 597 1485 9-15 25-74 31-91 3 37 6 42 0 76-35 169-166-45-246-198 124 401 345 1060 410 1432z"/>
   <path class="fil1" d="m1138 8908c-264-845-1797-5464-662-2156 65 191 459 1333 498 846"/>
    <path class="fil0" d="m237 5634c719-277 1597-597 2031-1279 23-37 64-21 68 1 0 1-34 346-35 397-20 907 262 1935 505 2809 2 5 3 11 5 17 129 73 122 217 52 363-6 128-50 237-179 252-15 16-30 31-46 46-3 3-7 7-11 10-65 108-154 198-264 254-293 150-1039 139-773-355 42-77 124-182 227-288 14-159 100-302 287-340 141-256 336-415 518-204 3 3 6 6 8 10-125-472-234-915-315-1415-44-280-132-1028-79-1396-475 591-1288 931-1999 1118zm2155 2471c-137-94-242-246-235-370h-1c-59 147-102 309-113 433 39 19 82 34 129 44-30-114-46-240-52-286l53 200c9 34 19 64 27 91h1c53 9 99 10 138 4 16-15 32-31 48-49 2-22 4-44 5-67zm81-577c33-2 69-2 108-1-3-6-5-13-8-19-27-2-62 6-100 20zm-492 933c-34-30-59-75-74-140-7-31-10-69-9-113-29-49-52-105-66-164-3-7-5-14-8-21-229 273-254 449 157 438zm-60-438c9-44 21-90 34-136-19 17-35 32-49 46 2 30 7 60 15 90zm115-363c3-7 6-14 9-21-42 24-74 57-97 96 29-25 58-51 88-75zm246-170c81-45 160-76 231-87-71-74-154-22-231 87zm301 159c7 29 12 68 20 123 8-23 14-45 19-66-2-18-5-36-8-54-10-1-21-2-31-3zm-390 635c-53-10-105-27-153-51v1c51 51 104 69 157 62-1-4-2-8-4-12zm169-615c34 27 55 85 69 186 3 18 5 68 4 132 18 14 37 28 55 39 16-28 31-56 44-84-1-95-23-200-51-293-15 1-30 3-43 4-31 4-57 9-78 16zm30 282c-9-170-31-240-90-250-68 62 2 169 90 250z"/>
   <path class="fil1" d="m237 5634c3563-1111 1106-2910 2517 1943 377 1296-1257-68-143 14 904 67-1071 1714-559 232 549-1588 1222 933-266 683-828-139 1391-1858 811-580-567 1250-1285-730-82-314 431 1244-1483 366-238 61 291-71 73 1502-157 253"/>
    <path class="fil0" d="m401 6534c219-209 888-577 1176-761 243-154 364-245 543-467l-22 94c-64 159-318 369-453 471-289 219-896 549-1244 663z"/>
   <path class="fil1" d="m401 6534c383-239 1569-794 1719-1228"/>
    <path class="fil0" d="m483 6534c144-251 307-386 530-568 306-248 598-406 900-632 132-99 185-150 289-273l-20 81c-99 236-740 678-960 825-292 196-473 346-739 567z"/>
   <path class="fil1" d="m483 6534c435-571 1591-1104 1719-1473"/>
    <path class="fil0" d="m21685 5879c-197-323-399-506-801-376-874 284-1845 2105 114 1905 123-13 257-46 130 106-837 993 59 1173 884 1183-51-38-89-75-108-108-159-277 699-126 816 36 103 142-201 169-292 174 253 120 542 229 636 247 482 96 534-199 589-591 71-504 421 170 473 228 340 375 1276-38 1609-277 290-208 520-465 560-791-306-75-458-360-54-398 152-15 159-6 187 154 8 46 12 92 12 137 325 4 720-304 242-1676-181-520-449-1179-1091-774-159 99-517 464-684 423-122-29-160-244-203-354-422-1086-954-1210-1734-368-398 429-190 216-507 72-412-186-825 795-614 1212-222-283 31-1031 317-1220 221-145 374-27 536 130 51-33 192-201 223-235 810-898 1410-754 1862 377 91 230 71 389 288 238 379-265 826-806 1301-312 397 414 1103 2376 220 2594-56 14-111 19-164 18-114 823-1401 1479-2105 1309-385-93-368-351-536-511-10 51-18 128-20 139-65 448-244 700-732 599-150-30-570-197-858-362-493 3-1260-61-1444-435-158-320 108-637 304-884l-35 4c-2231 206-900-2083 104-2064 313 6 453 195 575 451zm542 2818c15-1 31-1 46-1 53-1 238-5 325-29-117-66-458-136-578-116 35 42 111 92 207 146zm4074-1209c-2-46-7-94-16-143-55 3-127 9-157 34 18 40 85 84 173 109zm-3592-2529l1 2c0-1-1-1-1-2z"/>
   <path class="fil1" d="m21685 5879c-743-1643-3452 1944-552 1556 49-7-1321 1233 784 1310 2258 82-1430-758 751 231 1585 719 682-1427 1363-306 415 681 2655-271 2307-1392-1080 0 1436 1298 348-1598-717-1910-1655 257-1862-353-830-2449-2037-230-2135-348-591-708-1103 721-840 1064"/>
    <path class="fil0" d="m21685 5716c-501-261-1065-469-1530 19-362 380-541 1266-164 1664 196 207 447 160 670 51 99-96 219-186 285-138 68 50-71 115-85 124-47 30-97 58-149 83-409 405-818 1558 1053 922 32-11 227-100 178 38-46 131-122 216-60 382 158 430 1214 449 1291-174 4-32 5-49 5-59v-7c0-7-1-9 0-12 1-5 5-13 18-44l44-18 44 18c5 12 9 27 11 44h7l-2 31c14 127-1 327 69 385 91 76 517-768 556-846 20-37 111-251 189-131 44 67-46 207 247 403 443 297 1194 263 1198-426 0-75-74-358 73-299 8 3 22 23 43 52v2c114 166 412 633 810 192 464-514 367-1482 143-2096-129-352-395-836-640-1116-264-301-1211 331-1474 558-14 91-38 173-73 238-40 74-162 147-235 103-81-47 26-208 227-391 14-189-14-410-32-490-169-760-629-889-1189-319-418 426-53 216-643 495-52 25-1054 476-773 583 123 47 42-2 101 209 55 199 118 354 197 543-135-233-207-452-274-709-484-140 760-692 841-731 230-110 195-55 309-204 1022-1331 1587-204 1556 542 465-388 1263-815 1547-495 411 463 753 1207 840 1823 75 528-5 1485-574 1729-273 118-481-11-640-200 0 28-2 58-6 91-94 899-1423 741-1665 126-150 280-305 664-523 838-178 143-258 15-295-150-191 309-643 400-996 301-398-112-536-372-417-708-263 87-544 166-816 184-808 54-873-543-470-1108 5-7 13-17 23-30-102 30-207 41-309 23-586-108-566-988-405-1425 335-915 1148-952 1864-470zm2725-300c-47 47-93 102-118 155 59-17 96-76 118-155zm-417 2678c0-3-1-5-1-7 0 2 1 5 1 7z"/>
   <path class="fil1" d="m21685 5716c-2281-1424-2555 2894-764 1630-417 0-1507 1992 975 1106-511 895 1345 1107 1345 157 0 1376 824-643 819-519-28 648 1788 1063 1548-300 733 1385 2211-837 423-3064-322-402-1801 594-1801 894 588 110 160-2859-1303-866-16 22-1632 700-1092 812 56 243 145 502 260 723"/>
    <path class="fil0" d="m10798 5061c223-385 226-728 195-1157-19-267-80-639-133-1027-61-363-114-720-123-1060-21-763 229-1110 1024-1054 1201 86 1422 646 1096 1383 37 164 53 312 24 412-63 221-486 579-660 761-300 314-724 828-1018 1304-48 131-98 260-147 369-4 23-8 46-13 69 2-17 3-34 4-50-69 153-135 262-185 273-129 29-75-154-55-204 9-25 20-50 31-76-12 18-26 37-40 57zm1687-4032c19 29 26 80 66 193 58 165 177 459 259 741 135-386 89-734-325-934zm-1383 3459c75-207 142-405 175-510 50-155 54-125 187-252 330-314 985-977 1273-1588-83-358-266-828-343-1048-525-174-1301-388-1496 337-98 364-34 941 39 1521 43 280 87 536 110 726 34 279 59 546 55 814zm-33 89c0-86-2-174-8-271-3-61-8-122-14-183 1 50 0 98-2 145-8 181-24 330-73 472 30-53 63-108 97-163zm1703-2255c-92 171-209 350-348 534-115 153-859 1022-989 1072-12 39-36 115-67 210 254-344 539-674 762-906 149-153 585-526 638-707 15-49 14-119 4-203z"/>
   <path class="fil1" d="m10798 5061c906-1136-1384-5057 1637-4012 734 2121 511 1101-954 3050-935 1243-728 1785-110-191 5-18 3352-2971 245-3104-1674-72-279 2577-573 4257"/>
    <path class="fil0" d="m11452 1950c-43 61-115 153-182 248 14 34 32 70 55 108 49 81 110 154 174 206 97-42 255-123 397-217 20-130 43-402-43-519-96-12-201-15-296-3-102 49-214 125-316 202-13 49-11 109 13 180 82-96 165-177 198-205zm-268 379c-102 176-124 317 178 231-68-62-130-141-178-231zm826-116c133-103 225-213 190-300-18-45-114-90-240-118 17 41 29 91 36 151 12 101 16 189 14 267zm-412 360c104 44 204 18 261-129-84 50-173 94-261 129zm-496-490c-55 45-104 84-141 112 32-39 80-91 137-148-30-396 437-438 770-395 678 86 496 438 129 702-61 382-323 418-550 271-94 26-181 38-252 31-228-22-161-205-36-380-15-35-28-71-39-109-8-29-14-57-18-84z"/>
   <path class="fil1" d="m11452 1950c-1503 1607 2156-171 246-246-1377-54 380 1976 253 246-49-666-853 108-990 245"/>
    <path class="fil0" d="m22913 12101c11 128 18 259 22 391 1-115 3-230 4-343 0-64 0-128 2-181 0-31 0-61 1-92h5c3-20 6-33 10-38l38-15c78 32 54 59 55 175 5 684-5 1428 35 2104 1 21 13 200 30 294 94-149 333-596 396-692 230-351 543-691 976-754-134-76-277-169-421-270-42-3-74-5-88-6 13-1 39-3 73-5-335-236-674-515-903-721-10-9-177-160-62-165 60-3 479 361 564 409 156 88 928 310 927 415-1 60-157 76-311 78 45 29 89 58 131 84 38 24 228 123 319 174h3v1c27 16 45 26 46 29 67 118-188 87-199 88-425 37-726 380-941 716-91 142-375 727-468 786-208 134-206-402-208-454-5-91-8-185-11-279-2 0-4-1-5-2-77-41-37-1516-20-1727zm1311 556c138-11 284-27 308-51-38-54-627-234-796-297 164 124 332 244 488 348z"/>
   <path class="fil1" d="m22913 12101c0 2453 82 2125 82-225 0 5259 31 992 1719 1125-559-193-2526-1902-1146-818 275 216 1801 491 410 491"/>
    <path class="fil0" d="m23077 11855c260 134 1292 787 1334 1051 30 186-312 276-445 351-378 213-471 431-643 809 56-408 237-689 583-909 48-31 375-183 364-232-41-175-988-869-1193-1070z"/>
   <path class="fil1" d="m23077 11855c2462 1774 639 623 246 2211"/>
    <path class="fil0" d="m21685 11200c35 427 20 915 39 1355 28 674 126 2774 930 2918 280 50 1291-57 1586-121 1436-314 1114-1219 928-2349-80-485-134-957-103-1449 16-260 2-380-262-510-653-324-2248-114-2810 348l-62 54c469-595 2365-836 2998-440 243 152 251 298 239 554-28 552 54 1067 153 1607 145 791 396 1683-477 2129-494 252-1545 328-2094 301-728-36-912-1096-992-1672-105-754-137-1986-73-2725z"/>
   <path class="fil1" d="m21685 11200c0 988-109 4339 1065 4339 4076 0 2179-1721 2374-4093 76-928-2656-648-3193 0"/>
    <path class="fil0" d="m6049 1131c-36-59-73-112-112-161 24 103 31 212 31 325l-19-155c-10-64-25-124-44-179-26 17-48 25-63 22-77-17-64-77-23-143-154-144-339-223-604-244-108-8-256 2-406 35-17 11-34 22-50 35-401 297-519 520-470 686 248 247 869 395 1275 468l78 6c191 13 180-9 356 48 129 41 270 74 406 82 895 53 868-1041 527-1546-75-111-140-168-201-187-154 86-315 220-449 343-85 102-234 283-341 369 40 58 75 123 109 196zm-1410-454c-229 78-429 212-455 414-7 48 0 93 18 136 28-139 142-305 379-503 19-16 38-32 58-47zm1687 1377c422 203 670 2 810-326-158 259-447 367-810 326zm941-832c31-221 37-441 29-607-20-444-197-528-416-459 243 186 370 680 384 915 4 53 4 103 3 151zm-1102-745c152-174 307-342 408-376 46-14 89-19 130-16 594-292 857 177 662 1259-115 636-460 1158-1145 773-212-119-104-113-268-136-80-11-219-31-385-63-486-45-1260-180-1361-543-93-108-128-233-74-376 89-235 364-372 660-425 257-152 554-214 837-43 110 66 186 150 237 246 56-67 122-126 131-136 58-59 114-113 168-164zm-330 332c-185-316-541-410-885-256 193-16 382 1 523 47 155 51 270 118 362 209z"/>
   <path class="fil1" d="m6049 1131c-662-1465-3930 328 0 812 10 1 1217 1034 1310-1139 96-2227-2663 1514-928-520 690-809 1553 2384-545 1605-14-5-2744-45-1146-1249 462-348 1228-227 1228 655"/>
</svg>
